<?xml version="1.0" standalone="no"?>
<!DOCTYPE svg PUBLIC "-//W3C//DTD SVG 20010904//EN"
 "http://www.w3.org/TR/2001/REC-SVG-20010904/DTD/svg10.dtd">
<svg version="1.0" xmlns="http://www.w3.org/2000/svg"
 width="704.000000pt" height="704.000000pt" viewBox="0 0 704.000000 704.000000"
 preserveAspectRatio="xMidYMid meet">
<metadata>
Created by potrace 1.14, written by Peter Selinger 2001-2017
</metadata>
<g transform="translate(0.000000,704.000000) scale(0.100000,-0.100000)"
fill="#000000" stroke="none">
<path d="M1790 7030 c-97 -13 -143 -21 -215 -36 -38 -9 -77 -17 -86 -19 -9 -2
-66 -20 -125 -40 -180 -59 -435 -193 -559 -291 -16 -14 -35 -28 -40 -32 -27
-19 -153 -131 -180 -158 -93 -98 -177 -199 -220 -264 -17 -25 -32 -47 -35 -50
-9 -8 -85 -141 -118 -205 -100 -195 -177 -456 -200 -675 -9 -88 -9 -3387 0
-3475 12 -114 18 -144 49 -269 91 -366 281 -694 549 -952 60 -58 82 -77 164
-145 37 -31 162 -114 231 -154 230 -133 507 -223 775 -253 85 -9 3418 -9 3490
0 30 4 80 12 110 18 30 6 69 13 85 16 100 17 277 76 393 130 41 19 75 34 78
34 2 0 47 25 101 56 204 117 430 311 564 484 80 102 210 303 215 330 0 3 19
44 42 91 35 73 106 264 117 318 2 9 10 48 19 87 8 38 18 92 22 120 3 27 9 58
12 69 4 11 7 785 8 1720 2 1786 2 1780 -41 1980 -63 289 -216 606 -399 830
-258 315 -566 526 -957 654 -36 12 -74 23 -85 25 -10 3 -41 10 -69 16 -200 46
-111 44 -1930 46 -940 1 -1735 -2 -1765 -6z"/>
</g>
</svg>
